<svg xmlns="http://www.w3.org/2000/svg" width="99.998" height="80.002" viewBox="0 0 26.457876 21.167192"><g transform="matrix(.22316 0 0 .21602 5.605 -20.008)"><path d="M34.575 112.949c12.882-3.773 24.142-8.684 54.77 0 1.786.506 3.213 1.416 3.213 3.175v74.536c0 1.76-1.433 3.175-3.213 3.175h-54.77c-1.78 0-3.212-1.416-3.212-3.175v-74.536c0-1.76 1.57-2.695 3.212-3.175z" transform="skewY(-8.794) scale(.98825 1)" fill="none" stroke="#2a2a2a" stroke-width="3.992"/><path d="M34.169 107.663c-12.73-5.743-23.858-12.375-54.126-8.373-1.765.233-3.175.925-3.175 2.683v74.537c0 1.76 1.416 3.394 3.175 3.667l54.126 8.373c1.759.272 3.175-.925 3.175-2.684v-74.537c0-1.759-1.553-2.934-3.175-3.666z" fill="none" stroke="#2a2a2a" stroke-width="3.969"/><rect ry="3.214" rx="3.139" y="107.664" x="34.019" height="79.94" width=".149" fill="none" stroke="#252525" stroke-width="3.97"/><path d="M37.344 107.663c8.422-5.35 13.345-15.988 43.957-12.607 0 0 2.579 1.984 2.579 3.742v74.008c0 1.76-1.116 3.616-2.579 3.666-37.907 1.293-31.419 6.94-43.957 10.49-1.388.393-2.578-.925-2.578-2.684v-72.95c0-1.758 1.318-2.865 2.578-3.665z" fill="#fff" stroke="#2a2a2a" stroke-width="3.577"/><path d="M33.602 107.664c-8.423-5.35-13.346-15.989-43.958-12.607 0 0-2.578 1.983-2.578 3.742v74.008c0 1.759 1.116 3.616 2.578 3.666 37.908 1.293 31.42 6.94 43.958 10.49 1.387.393 2.578-.925 2.578-2.684v-72.95c0-1.758-1.319-2.865-2.578-3.665z" fill="#fff" stroke="#2a2a2a" stroke-width="3.577"/><path d="M-3.981 113.413s21.87.267 29.344 7.475M-3.981 133.169s21.87.267 29.344 7.475M-3.981 153.992s21.87.267 29.344 7.475M75.069 113.413s-21.87.267-29.345 7.475M75.069 133.169s-21.87.267-29.345 7.475M75.069 153.992s-21.87.267-29.345 7.475" fill="none" stroke="#2a2a2a" stroke-width="3.229" stroke-linecap="round"/></g></svg>